<!DOCTYPE svg PUBLIC "-//W3C//DTD SVG 1.1//EN" "http://www.w3.org/Graphics/SVG/1.1/DTD/svg11.dtd">
<!-- Uploaded to: SVG Repo, www.svgrepo.com, Transformed by: SVG Repo Mixer Tools -->
<svg width="800px" height="800px" viewBox="-1 0 14 14" id="meteor-icon-kit__solid-pause-s" fill="none" xmlns="http://www.w3.org/2000/svg">

<g id="SVGRepo_bgCarrier" stroke-width="0"/>

<g id="SVGRepo_iconCarrier">

<path fill-rule="evenodd" clip-rule="evenodd" d="M1 0H4C4.5523 0 5 0.44772 5 1V13C5 13.5523 4.5523 14 4 14H1C0.44772 14 0 13.5523 0 13V1C0 0.44772 0.44772 0 1 0zM8 0H11C11.5523 0 12 0.44772 12 1V13C12 13.5523 11.5523 14 11 14H8C7.4477 14 7 13.5523 7 13V1C7 0.44772 7.4477 0 8 0z" fill="#b0b0b0"/>

</g>

</svg>